<svg viewBox="0 0 900 560" xmlns="http://www.w3.org/2000/svg" role="img" aria-label="Adebayo Akindele cover treatment">
<defs>
  <linearGradient id="grad1" x1="0" y1="0" x2="1" y2="1">
    <stop offset="0%" stop-color="#0d1220"/>
    <stop offset="55%" stop-color="#0a0e16"/>
    <stop offset="100%" stop-color="#0a0d18"/>
  </linearGradient>
  <radialGradient id="glow1" cx="50%" cy="50%" r="60%">
    <stop offset="0%" stop-color="#d76fe1" stop-opacity="0.16"/>
    <stop offset="100%" stop-color="#d76fe1" stop-opacity="0"/>
  </radialGradient>
  <filter id="grain1"><feTurbulence type="fractalNoise" baseFrequency="0.9" numOctaves="2" stitchTiles="stitch" result="noise"/>
    <feColorMatrix in="noise" type="matrix" values="0 0 0 0 1  0 0 0 0 1  0 0 0 0 1  0 0 0 0.02 0"/>
  </filter>
</defs>
<rect width="900" height="560" fill="url(#grad1)"/>
<rect width="900" height="560" fill="url(#glow1)"/>
<ellipse cx="634" cy="336" rx="170" ry="115" fill="none" stroke="#d76fe1" stroke-opacity="0.26" stroke-width="1" transform="rotate(12 634 336)"/><ellipse cx="634" cy="336" rx="130" ry="96" fill="none" stroke="#d76fe1" stroke-opacity="0.21" stroke-width="1" transform="rotate(15 634 336)"/><ellipse cx="634" cy="336" rx="92" ry="72" fill="none" stroke="#d76fe1" stroke-opacity="0.16" stroke-width="1" transform="rotate(32 634 336)"/><ellipse cx="634" cy="336" rx="56" ry="42" fill="none" stroke="#d76fe1" stroke-opacity="0.11" stroke-width="1" transform="rotate(6 634 336)"/>
<rect width="900" height="560" filter="url(#grain1)"/>
<g stroke="#d76fe1" stroke-opacity="0.55" stroke-width="1.2" fill="none">
  <path d="M 30 54 L 30 30 L 54 30"/>
  <path d="M 846 506 L 870 506 L 870 482"/>
</g>
<text x="52" y="42" font-family="IBM Plex Mono, monospace" font-size="12" letter-spacing="2" fill="#6d7891">01 / 50+</text>
<text x="848" y="42" font-family="IBM Plex Mono, monospace" font-size="12" letter-spacing="1.5" fill="#d76fe1" fill-opacity="0.85" text-anchor="end">PUBLISHING</text>
<text x="52" y="466" font-family="Fraunces, serif" font-size="38" fill="#eef0f4" font-weight="500"><tspan x="52" dy="0">Adebayo</tspan><tspan x="52" dy="44">Akindele</tspan></text>
<line x1="52" y1="486" x2="130" y2="486" stroke="#d76fe1" stroke-opacity="0.6" stroke-width="1.5"/>
</svg>