<svg viewBox="0 0 900 560" xmlns="http://www.w3.org/2000/svg" role="img" aria-label="AtlasSpaces cover treatment">
<defs>
  <linearGradient id="grad11" x1="0" y1="0" x2="1" y2="1">
    <stop offset="0%" stop-color="#0d1220"/>
    <stop offset="55%" stop-color="#0a0e16"/>
    <stop offset="100%" stop-color="#0a0d18"/>
  </linearGradient>
  <radialGradient id="glow11" cx="50%" cy="50%" r="60%">
    <stop offset="0%" stop-color="#5f9bb8" stop-opacity="0.16"/>
    <stop offset="100%" stop-color="#5f9bb8" stop-opacity="0"/>
  </radialGradient>
  <filter id="grain11"><feTurbulence type="fractalNoise" baseFrequency="0.9" numOctaves="2" stitchTiles="stitch" result="noise"/>
    <feColorMatrix in="noise" type="matrix" values="0 0 0 0 1  0 0 0 0 1  0 0 0 0 1  0 0 0 0.02 0"/>
  </filter>
</defs>
<rect width="900" height="560" fill="url(#grad11)"/>
<rect width="900" height="560" fill="url(#glow11)"/>
<line x1="841" y1="207" x2="685" y2="58" stroke="#5f9bb8" stroke-opacity="0.16" stroke-width="1"/><line x1="685" y1="58" x2="591" y2="185" stroke="#5f9bb8" stroke-opacity="0.16" stroke-width="1"/><line x1="591" y1="185" x2="626" y2="241" stroke="#5f9bb8" stroke-opacity="0.16" stroke-width="1"/><line x1="626" y1="241" x2="715" y2="239" stroke="#5f9bb8" stroke-opacity="0.16" stroke-width="1"/><line x1="715" y1="239" x2="750" y2="304" stroke="#5f9bb8" stroke-opacity="0.16" stroke-width="1"/><line x1="750" y1="304" x2="697" y2="351" stroke="#5f9bb8" stroke-opacity="0.16" stroke-width="1"/><circle cx="841" cy="207" r="2" fill="#5f9bb8" fill-opacity="0.55"/><circle cx="685" cy="58" r="2" fill="#5f9bb8" fill-opacity="0.55"/><circle cx="591" cy="185" r="4" fill="#5f9bb8" fill-opacity="0.55"/><circle cx="626" cy="241" r="3" fill="#5f9bb8" fill-opacity="0.55"/><circle cx="715" cy="239" r="3" fill="#5f9bb8" fill-opacity="0.55"/><circle cx="750" cy="304" r="3" fill="#5f9bb8" fill-opacity="0.55"/><circle cx="697" cy="351" r="3" fill="#5f9bb8" fill-opacity="0.55"/>
<rect width="900" height="560" filter="url(#grain11)"/>
<g stroke="#5f9bb8" stroke-opacity="0.55" stroke-width="1.2" fill="none">
  <path d="M 30 54 L 30 30 L 54 30"/>
  <path d="M 846 506 L 870 506 L 870 482"/>
</g>
<text x="52" y="42" font-family="IBM Plex Mono, monospace" font-size="12" letter-spacing="2" fill="#6d7891">11 / 50+</text>
<text x="848" y="42" font-family="IBM Plex Mono, monospace" font-size="12" letter-spacing="1.5" fill="#5f9bb8" fill-opacity="0.85" text-anchor="end">PROPERTY &amp; INTERIORS</text>
<text x="52" y="466" font-family="Fraunces, serif" font-size="38" fill="#eef0f4" font-weight="500"><tspan x="52" dy="0">AtlasSpaces</tspan></text>
<line x1="52" y1="486" x2="130" y2="486" stroke="#5f9bb8" stroke-opacity="0.6" stroke-width="1.5"/>
</svg>