<svg viewBox="0 0 900 560" xmlns="http://www.w3.org/2000/svg" role="img" aria-label="TerraForge cover treatment">
<defs>
  <linearGradient id="grad46" x1="0" y1="0" x2="1" y2="1">
    <stop offset="0%" stop-color="#0d1220"/>
    <stop offset="55%" stop-color="#0a0e16"/>
    <stop offset="100%" stop-color="#0a0d18"/>
  </linearGradient>
  <radialGradient id="glow46" cx="50%" cy="50%" r="60%">
    <stop offset="0%" stop-color="#5f9bb8" stop-opacity="0.16"/>
    <stop offset="100%" stop-color="#5f9bb8" stop-opacity="0"/>
  </radialGradient>
  <filter id="grain46"><feTurbulence type="fractalNoise" baseFrequency="0.9" numOctaves="2" stitchTiles="stitch" result="noise"/>
    <feColorMatrix in="noise" type="matrix" values="0 0 0 0 1  0 0 0 0 1  0 0 0 0 1  0 0 0 0.02 0"/>
  </filter>
</defs>
<rect width="900" height="560" fill="url(#grad46)"/>
<rect width="900" height="560" fill="url(#glow46)"/>
<line x1="799" y1="96" x2="804" y2="322" stroke="#5f9bb8" stroke-opacity="0.16" stroke-width="1"/><line x1="804" y1="322" x2="586" y2="51" stroke="#5f9bb8" stroke-opacity="0.16" stroke-width="1"/><line x1="586" y1="51" x2="595" y2="361" stroke="#5f9bb8" stroke-opacity="0.16" stroke-width="1"/><line x1="595" y1="361" x2="795" y2="306" stroke="#5f9bb8" stroke-opacity="0.16" stroke-width="1"/><line x1="795" y1="306" x2="868" y2="276" stroke="#5f9bb8" stroke-opacity="0.16" stroke-width="1"/><line x1="868" y1="276" x2="637" y2="230" stroke="#5f9bb8" stroke-opacity="0.16" stroke-width="1"/><circle cx="799" cy="96" r="3" fill="#5f9bb8" fill-opacity="0.55"/><circle cx="804" cy="322" r="2" fill="#5f9bb8" fill-opacity="0.55"/><circle cx="586" cy="51" r="4" fill="#5f9bb8" fill-opacity="0.55"/><circle cx="595" cy="361" r="2" fill="#5f9bb8" fill-opacity="0.55"/><circle cx="795" cy="306" r="2" fill="#5f9bb8" fill-opacity="0.55"/><circle cx="868" cy="276" r="4" fill="#5f9bb8" fill-opacity="0.55"/><circle cx="637" cy="230" r="3" fill="#5f9bb8" fill-opacity="0.55"/>
<rect width="900" height="560" filter="url(#grain46)"/>
<g stroke="#5f9bb8" stroke-opacity="0.55" stroke-width="1.2" fill="none">
  <path d="M 30 54 L 30 30 L 54 30"/>
  <path d="M 846 506 L 870 506 L 870 482"/>
</g>
<text x="52" y="42" font-family="IBM Plex Mono, monospace" font-size="12" letter-spacing="2" fill="#6d7891">46 / 50+</text>
<text x="848" y="42" font-family="IBM Plex Mono, monospace" font-size="12" letter-spacing="1.5" fill="#5f9bb8" fill-opacity="0.85" text-anchor="end">INDUSTRIAL FABRICATION</text>
<text x="52" y="466" font-family="Fraunces, serif" font-size="38" fill="#eef0f4" font-weight="500"><tspan x="52" dy="0">TerraForge</tspan></text>
<line x1="52" y1="486" x2="130" y2="486" stroke="#5f9bb8" stroke-opacity="0.6" stroke-width="1.5"/>
</svg>